<svg width="37" height="31" fill="none" xmlns="http://www.w3.org/2000/svg"><path d="M3.083 7.744c0-.71.688-1.286 1.534-1.286h12.349c.407 0 .797.136 1.085.377.287.24.449.568.449.909 0 .34-.162.667-.45.908a1.696 1.696 0 0 1-1.084.377H4.617c-.848 0-1.534-.575-1.534-1.285ZM3.083 15.5c0-.71.688-1.285 1.534-1.285h27.766c.406 0 .797.135 1.084.376.288.241.45.568.45.91 0 .34-.162.667-.45.908a1.696 1.696 0 0 1-1.084.376H4.617c-.848 0-1.534-.576-1.534-1.285ZM4.617 21.971c-.407 0-.797.136-1.085.377-.287.24-.449.568-.449.909 0 .34.162.667.45.908.287.241.677.377 1.084.377h18.516c.201 0 .4-.034.587-.098.186-.065.355-.16.497-.279.143-.12.256-.26.333-.417a1.106 1.106 0 0 0 0-.983 1.295 1.295 0 0 0-.333-.417 1.582 1.582 0 0 0-.497-.279 1.795 1.795 0 0 0-.587-.098H4.617Z" fill="#fff"/></svg>