<svg width="33" height="37" viewBox="0 0 33 37" fill="none" xmlns="http://www.w3.org/2000/svg">
<path d="M32.2608 9.73886L29.1554 11.5078C29.1043 11.5373 29.043 11.5373 28.992 11.5078C28.992 11.5078 19.3592 6.23049 19.3184 6.20101L16.2539 4.49105C16.2028 4.46157 16.1415 4.46157 16.0904 4.49105L16.0394 4.52054L7.67329 9.18853L4.22062 11.1147C3.7303 11.3899 3.42385 11.9009 3.42385 12.4512L3.40342 22.0132C3.40342 22.1312 3.53622 22.2098 3.64858 22.1508L12.3109 17.3158C12.7604 17.0602 13.0362 16.5984 13.0362 16.0972L13.0157 13.6698C13.0157 13.5519 12.8829 13.4831 12.7706 13.542L6.62115 16.962V14.1907C6.62115 13.6993 6.89695 13.2374 7.34641 12.9819L16.1926 8.05838L16.2028 17.8956C16.2028 18.3968 15.927 18.8586 15.4775 19.1043L5.569 24.6175C4.59858 25.158 4.60879 26.4945 5.569 27.0252L16.2845 32.9609L16.2947 36.4791L0.308282 27.664C0.257207 27.6345 0.226562 27.5853 0.226562 27.5264V10.5938C0.226562 10.0926 0.502367 9.64059 0.951827 9.38508L16.1722 0.923723C16.2232 0.894241 16.2845 0.894241 16.3356 0.923723L32.2608 9.73886Z" fill="#F5881F"/>
<path d="M12.2374 17.3453C12.6868 17.0897 13.0342 16.5886 13.0342 16.0874L13.0137 13.66C13.0137 13.5421 12.8809 13.4733 12.7686 13.5322L6.61914 16.9522V14.1809C6.61914 13.6895 6.89495 13.2276 7.3444 12.9721L16.1906 8.04858L16.1702 15.1734L12.2374 17.3453Z" fill="#C93446"/>
<path d="M32.2587 9.73892L29.1533 11.5078C29.1023 11.5373 29.041 11.5373 28.9899 11.5078C28.9899 11.5078 19.3572 6.23056 19.3163 6.20107L16.2518 4.49111C16.2007 4.46163 16.1395 4.46163 16.0884 4.49111L16.1497 0.933611C16.2007 0.904129 16.262 0.904129 16.3131 0.933611L32.2587 9.73892Z" fill="#40B458"/>
<path d="M0.204102 12.461L0.224532 18.7112C0.224532 18.7112 0.745496 13.1588 3.8815 11.3407C7.02771 9.5128 0.204102 12.461 0.204102 12.461Z" fill="#CF702C"/>
<path d="M16.2008 4.47138C16.1599 4.46156 16.1191 4.47138 16.0782 4.50086L16.0271 4.53035L7.66104 9.20817L4.20838 11.1442C3.66698 11.4979 0.204102 13.3848 0.204102 13.3848V10.9574V10.5643C0.204102 10.0631 0.459476 9.64057 0.919151 9.39489L16.1395 0.943362C16.1906 0.91388 16.1906 0.91388 16.2314 0.904053L16.2008 4.47138Z" fill="#FFD300"/>
<path d="M10.603 11.154C10.603 11.154 12.881 11.0656 13.024 13.4733C13.1261 15.1833 13.5347 9.52271 13.5347 9.52271L10.603 11.154Z" fill="#AF2124"/>
<path d="M3.46289 22.1311C3.56504 22.2097 3.66719 22.1311 3.69784 22.1115L12.3499 17.2764C12.7687 17.0012 13.0343 16.5197 13.0343 16.0185L16.1908 14.2791L16.2521 17.866C16.2521 18.3672 15.9762 18.8291 15.5268 19.0748L5.61825 24.588C4.64783 25.1285 4.39245 26.3471 5.35266 26.8777L4.24944 26.2488C4.19837 26.2193 3.50375 25.8066 3.50375 25.7476L3.46289 22.1311Z" fill="#D71D23"/>
<path d="M12.2378 17.3453C12.6873 17.0897 13.0346 16.5886 13.0346 16.0874L13.0141 13.66C13.0141 13.5421 13.0039 13.1588 13.0039 13.1588L13.0141 9.81751L16.191 8.04858L16.1706 15.1734L12.2378 17.3453Z" fill="#C93446"/>
<path d="M12.2275 17.3551C12.677 17.0996 13.3103 16.3724 13.5759 15.94C14.4748 14.4855 16.2012 8.04858 16.2012 8.04858L16.2114 15.1734L12.2275 17.3551Z" fill="#AF2124"/>
<path d="M5.64892 24.5684C4.6785 25.1089 4.62742 26.4749 5.58763 27.0154L4.18818 26.298C3.90216 26.2685 3.34033 25.8754 3.34033 25.8164L5.64892 24.5684Z" fill="#2784BD"/>
<path d="M16.2928 32.9412L16.3133 36.4594C16.3133 36.4594 0.786473 27.9195 0.337013 27.6738C0.306368 27.6541 0.255293 27.6345 0.234863 27.5755C0.234863 27.5657 3.40151 25.7968 3.40151 25.7968L16.2928 32.9412Z" fill="#00A1E4"/>
<path d="M29.0614 15.1243L29.1023 18.6327L32.2689 16.9031V9.72913L16.9465 18.2691C16.497 18.5148 16.2212 18.9865 16.2212 19.4779L16.3131 36.4497L31.513 27.9687C31.9625 27.723 32.2281 27.2611 32.2383 26.7698L32.2485 20.4016L29.7969 21.7873C29.3577 22.033 29.0921 22.485 29.0819 22.9764L29.0614 24.9419C29.0614 25.4332 28.7856 25.8853 28.3362 26.131L19.4696 31.0643L19.4287 21.2861C19.4287 20.7849 19.7045 20.323 20.154 20.0773L29.0614 15.1243Z" fill="#ED1C24"/>
<path d="M16.2314 22.141L16.2621 27.5952C16.2621 27.5952 16.7728 22.0428 19.9088 20.2247C23.0551 18.3968 16.2314 22.141 16.2314 22.141Z" fill="#C81A21"/>
<path d="M32.2588 16.903V13.3455L29.0615 15.1242L29.1126 17.5417L32.2588 16.903Z" fill="#C81A21"/>
<path d="M29.0614 15.1341L32.2587 13.3848V9.73889L16.9465 18.2887C16.497 18.5344 16.2212 19.0061 16.2212 19.4975L16.2314 22.1902C16.2314 22.1902 19.7147 20.3328 20.1642 20.0871L29.0614 15.1341Z" fill="#ED1C24"/>
<path d="M19.4087 34.72L24.2404 32.0175C24.2404 32.0175 22.0442 32.7643 20.3178 31.8701C19.7764 31.5949 19.5415 31.1821 19.47 31.0642L19.4087 34.72Z" fill="#C81A21"/>
<path d="M29.0615 15.1342L29.1024 18.6327L32.269 16.9031V16.1562C32.2588 16.1562 31.7378 14.23 29.0615 15.1342Z" fill="#AF2124"/>
<path d="M28.5 26.0622L32.2387 24.2048V22.2491L29.0618 24.9517C29.0618 24.9517 29.0516 25.217 28.9495 25.4627C28.7758 25.9049 28.5 26.0622 28.5 26.0622Z" fill="#C81A21"/>
<path d="M31.2273 24.303C32.0548 23.389 32.2386 22.4063 32.2386 22.4063L32.2488 20.4015L29.787 21.7871C29.3274 22.0427 29.0924 22.5045 29.072 22.9959C29.0413 23.6249 29.1333 24.9712 28.9698 25.4134C28.8166 25.8262 28.3569 26.121 28.3569 26.121C28.3569 26.121 30.4817 25.1284 31.2273 24.303Z" fill="#AF2124"/>
</svg>
