<svg width="72" height="56" fill="none" xmlns="http://www.w3.org/2000/svg"><path fill-rule="evenodd" clip-rule="evenodd" d="M55.53 34.116 39.062 17.458 55.531.8 72 17.458 55.53 34.116ZM40.364 55.8h-6.998V39.566c0-1.711-.269-3.006-.79-3.879-.52-.872-1.338-1.308-2.451-1.308a5.91 5.91 0 0 0-2.964.764c-.899.508-2.048 1.276-3.449 2.288V55.8h-6.993V39.566c0-1.711-.273-3.006-.794-3.879-.521-.872-1.338-1.308-2.452-1.308a5.91 5.91 0 0 0-2.964.764c-.895.508-2.065 1.29-3.502 2.343V55.8H0V29.364h4.58l1.186 2.834c1.616-1.16 3.287-2.07 5.012-2.724 1.724-.655 3.232-.982 4.526-.982 3.556 0 5.964 1.2 7.222 3.598 1.62-1.126 3.268-2.008 4.957-2.644 1.689-.636 3.18-.954 4.473-.954 2.982 0 5.128.81 6.44 2.426 1.31 1.617 1.967 4.024 1.967 7.222V55.8Z" fill="#06255B"/></svg>